<svg width="46" height="47" viewBox="0 0 46 47" fill="none" xmlns="http://www.w3.org/2000/svg">
<path d="M0.138672 14.6016C0.138672 6.86957 6.40668 0.601562 14.1387 0.601562H31.7387C39.4706 0.601562 45.7387 6.86958 45.7387 14.6016V32.2015C45.7387 39.9335 39.4707 46.2015 31.7387 46.2015H14.1387C6.40669 46.2015 0.138672 39.9335 0.138672 32.2015V14.6016Z" fill="url(#paint0_linear_6388_5773)"/>
<path d="M13.4969 23.73C13.4177 23.5167 13.4177 23.2821 13.4969 23.0688C14.268 21.1991 15.5769 19.6004 17.2577 18.4755C18.9385 17.3505 20.9155 16.75 22.938 16.75C24.9605 16.75 26.9375 17.3505 28.6183 18.4755C30.2991 19.6004 31.608 21.1991 32.3791 23.0688C32.4583 23.2821 32.4583 23.5167 32.3791 23.73C31.608 25.5998 30.2991 27.1984 28.6183 28.3234C26.9375 29.4483 24.9605 30.0488 22.938 30.0488C20.9155 30.0488 18.9385 29.4483 17.2577 28.3234C15.5769 27.1984 14.268 25.5998 13.4969 23.73Z" stroke="white" stroke-width="1.9" stroke-linecap="round" stroke-linejoin="round"/>
<path d="M22.9398 26.2469C24.5139 26.2469 25.7898 24.9709 25.7898 23.3969C25.7898 21.8229 24.5139 20.5469 22.9398 20.5469C21.3658 20.5469 20.0898 21.8229 20.0898 23.3969C20.0898 24.9709 21.3658 26.2469 22.9398 26.2469Z" stroke="white" stroke-width="1.9" stroke-linecap="round" stroke-linejoin="round"/>
<defs>
<linearGradient id="paint0_linear_6388_5773" x1="0.138672" y1="0.601562" x2="45.7386" y2="46.2016" gradientUnits="userSpaceOnUse">
<stop stop-color="#FF6900"/>
<stop offset="1" stop-color="#FF6467"/>
</linearGradient>
</defs>
</svg>
